<?xml version="1.0" encoding="UTF-8"?>
<svg id="Camada_1" xmlns="http://www.w3.org/2000/svg" viewBox="0 0 764.68 81.78">
  <defs>
    <style>
      .cls-1 {
        fill: #dce4e7;
      }
    </style>
  </defs>
  <path class="cls-1" d="M70.3.44c-.25-.26-.59-.41-.98-.41H1.39C.62.03,0,.65,0,1.42v78.95c0,.77.62,1.39,1.39,1.39h68c.36-.01.67-.17.91-.4l16.65-16.19h.01v-15.96l-18.16-6.64h-.04c-.49-.23-.83-.72-.83-1.29,0-.52.29-.97.71-1.21h.03c.09-.07.18-.1.27-.12h.01s18.01-7.27,18.01-7.27v-16.04L70.3.44ZM27.62,65.15l-6.04,7.81v.02s-.08.09-.08.09c-.04.06-.1.11-.15.16-.06.05-.12.1-.18.14-.04.03-.09.05-.13.07-.18.09-.39.14-.61.14-.77,0-1.39-.62-1.39-1.39v-22.99h48.89v15.94H27.62ZM67.93,32.6H19.04V9.72c0-.76.62-1.39,1.39-1.39.44,0,.82.2,1.07.51l.07.09v.02s5.96,7.69,5.96,7.69h40.41v15.96Z"/>
  <path class="cls-1" d="M420.98,79.41c.27.26.44.61.44,1.02,0,.77-.63,1.35-1.39,1.35h-24.6l-12.09-13.55-2.46-2.77-14.14-15.88c-.26-.3-.63-.49-1.05-.49-.77,0-1.39.63-1.39,1.39v31.31s-19.03,0-19.03,0V8.88c0-.29.07-.54.22-.76.01-.02.03-.04.04-.06l5.76-7.44c.24-.38.64-.59,1.13-.6h11.86l.03,31.31c0,.75.58,1.35,1.32,1.38.02,0,.04,0,.07,0s.05,0,.07,0c.33-.01.63-.15.86-.35l.04-.04s.01,0,.01-.01h0s15.66-15.95,15.66-15.95l.99-1.01L398.46,0h21.61c.76,0,1.34.6,1.34,1.37,0,.39-.15.73-.4.98l-13.89,14-4.75,4.79-11.48,11.56-7.11,7.16-.07.07c-.24.25-.39.58-.39.95s.15.71.39.96l.02.02,7.14,7.2,11.49,11.59,4.75,4.79,13.85,13.96Z"/>
  <path class="cls-1" d="M164.4,66.52v15.24h-67.94L96.56.02h17.65c.77,0,1.39.62,1.39,1.38l-.08,70.84c0,.77.62,1.38,1.39,1.38.53,0,.95-.3,1.13-.57l6.06-7.86h38.92c.75,0,1.35.58,1.38,1.32Z"/>
  <path class="cls-1" d="M278.59,65.67h47.09c.29,0,.56.09.77.23l.2.18,8.64,7.34c.26.26.41.6.41.98v7.36s-57.15,0-57.15,0l-19.01-16.09V16.38L278.6.02h57.12v7.51c0,.38-.16.73-.41.98l-.2.18-8.43,7.28-.2.18c-.22.15-.49.23-.77.23h-38.81l-5.72-7.77c-.24-.4-.68-.67-1.18-.67-.76,0-1.38.62-1.38,1.39v56.34Z"/>
  <path class="cls-1" d="M450.53,65.67h47.09c.29,0,.56.09.77.23l.2.18,8.64,7.34c.26.26.41.6.41.98v7.36s-57.15,0-57.15,0l-19.57-16.09V16.38L450.54.02h57.12v7.51c0,.38-.16.73-.41.98l-.2.18-8.43,7.28-.2.18c-.22.15-.49.23-.77.23h-38.81l-5.72-7.77c-.24-.4-.68-.67-1.18-.67-.76,0-1.38.62-1.38,1.39v56.34Z"/>
  <path class="cls-1" d="M764.68,9.47v5.53c-.04.74-.64,1.32-1.38,1.32h-55.74v16.37h55.74c.75,0,1.35.58,1.38,1.32v13.76c-.03.67-.53,1.2-1.17,1.29h-55.95v16.37h55.74c.75,0,1.35.58,1.38,1.32v13.71c-.04.74-.64,1.32-1.38,1.32h-74.78V1.33c0-.76.66-1.33,1.43-1.33h66.69l8.04,9.47Z"/>
  <path class="cls-1" d="M670.89,0h-66.69c-.76,0-1.37.57-1.37,1.33v79.06c0,.77.63,1.39,1.39,1.39h66.68l8.09-9.52V9.47l-8.11-9.47ZM659.96,55.91l-8.09,9.52h-29.99V16.32h29.5l5.99-7.72c.23-.42.69-.72,1.21-.72.76,0,1.38.62,1.38,1.39v46.63Z"/>
  <g>
    <path class="cls-1" d="M249.98,16.47L230.96,0h-38.09l-19.03,16.46v48.88l19.03,16.42h38.09l19.04-16.42V16.47h-.02ZM230.96,63.96c0,.77-.62,1.39-1.39,1.39h-28.06l-5.91,7.81s-.01.02-.02.03c-.26.41-.72.68-1.24.68-.81,0-1.47-.66-1.47-1.47V17.93s0-.05,0-.07,0-.04,0-.07c.03-.74.64-1.32,1.38-1.32h28.12l5.96-7.95c.27-.34.69-.56,1.16-.56.81,0,1.47.66,1.47,1.47v54.54Z"/>
    <rect class="cls-1" x="207.59" y="36.66" rx=".53" ry=".53"/>
  </g>
  <g>
    <path class="cls-1" d="M593.32,16.47L574.3,0h-38.09l-19.03,16.46v48.88l19.03,16.42h38.09l19.04-16.42V16.47h-.02ZM574.3,63.96c0,.77-.62,1.39-1.39,1.39h-28.06l-5.91,7.81s-.01.02-.02.03c-.26.41-.72.68-1.24.68-.81,0-1.47-.66-1.47-1.47V17.93s0-.05,0-.07,0-.04,0-.07c.03-.74.64-1.32,1.38-1.32h28.12l5.96-7.95c.27-.34.69-.56,1.16-.56.81,0,1.47.66,1.47,1.47v54.54Z"/>
    <rect class="cls-1" x="550.92" y="36.66" rx=".53" ry=".53"/>
  </g>
</svg>